<svg width="40" height="40" viewBox="0 0 40 40" fill="none" xmlns="http://www.w3.org/2000/svg">
<mask id="path-1-inside-1_9835_9707" fill="white">
<path d="M0 10C0 4.47715 4.47715 0 10 0H30C35.5228 0 40 4.47715 40 10V30C40 35.5228 35.5228 40 30 40H10C4.47715 40 0 35.5228 0 30V10Z"/>
</mask>
<path d="M0 10C0 4.47715 4.47715 0 10 0H30C35.5228 0 40 4.47715 40 10V30C40 35.5228 35.5228 40 30 40H10C4.47715 40 0 35.5228 0 30V10Z" fill="white" fill-opacity="0.05"/>
<path d="M10 0V1H30V0V-1H10V0ZM40 10H39V30H40H41V10H40ZM30 40V39H10V40V41H30V40ZM0 30H1V10H0H-1V30H0ZM10 40V39C5.02944 39 1 34.9706 1 30H0H-1C-1 36.0751 3.92487 41 10 41V40ZM40 30H39C39 34.9706 34.9706 39 30 39V40V41C36.0751 41 41 36.0751 41 30H40ZM30 0V1C34.9706 1 39 5.02944 39 10H40H41C41 3.92487 36.0751 -1 30 -1V0ZM10 0V-1C3.92487 -1 -1 3.92487 -1 10H0H1C1 5.02944 5.02944 1 10 1V0Z" fill="#D5DAE1" mask="url(#path-1-inside-1_9835_9707)"/>
<path d="M22.2498 27.5V24.5C22.3542 23.5605 22.0848 22.6176 21.4998 21.875C23.7498 21.875 25.9998 20.375 25.9998 17.75C26.0598 16.8125 25.7973 15.89 25.2498 15.125C25.4598 14.2625 25.4598 13.3625 25.2498 12.5C25.2498 12.5 24.4998 12.5 22.9998 13.625C21.0198 13.25 18.9798 13.25 16.9998 13.625C15.4998 12.5 14.7498 12.5 14.7498 12.5C14.5248 13.3625 14.5248 14.2625 14.7498 15.125C14.2037 15.8869 13.9387 16.8146 13.9998 17.75C13.9998 20.375 16.2498 21.875 18.4998 21.875C18.2073 22.2425 17.9898 22.6625 17.8623 23.1125C17.7348 23.5625 17.6973 24.035 17.7498 24.5V27.5" stroke="#566573" stroke-width="1.5" stroke-linecap="round" stroke-linejoin="round"/>
<path d="M17.75 24.5C14.3675 26 14 23 12.5 23" stroke="#566573" stroke-width="1.5" stroke-linecap="round" stroke-linejoin="round"/>
</svg>
