<svg width="40" height="40" viewBox="0 0 40 40" fill="none" xmlns="http://www.w3.org/2000/svg">
<mask id="path-1-inside-1_9835_9711" fill="white">
<path d="M0 10C0 4.47715 4.47715 0 10 0H30C35.5228 0 40 4.47715 40 10V30C40 35.5228 35.5228 40 30 40H10C4.47715 40 0 35.5228 0 30V10Z"/>
</mask>
<path d="M0 10C0 4.47715 4.47715 0 10 0H30C35.5228 0 40 4.47715 40 10V30C40 35.5228 35.5228 40 30 40H10C4.47715 40 0 35.5228 0 30V10Z" fill="white" fill-opacity="0.05"/>
<path d="M10 0V1H30V0V-1H10V0ZM40 10H39V30H40H41V10H40ZM30 40V39H10V40V41H30V40ZM0 30H1V10H0H-1V30H0ZM10 40V39C5.02944 39 1 34.9706 1 30H0H-1C-1 36.0751 3.92487 41 10 41V40ZM40 30H39C39 34.9706 34.9706 39 30 39V40V41C36.0751 41 41 36.0751 41 30H40ZM30 0V1C34.9706 1 39 5.02944 39 10H40H41C41 3.92487 36.0751 -1 30 -1V0ZM10 0V-1C3.92487 -1 -1 3.92487 -1 10H0H1C1 5.02944 5.02944 1 10 1V0Z" fill="#D5DAE1" mask="url(#path-1-inside-1_9835_9711)"/>
<path d="M27.5 16.25L20.7567 20.5453C20.5279 20.6782 20.268 20.7482 20.0034 20.7482C19.7387 20.7482 19.4788 20.6782 19.25 20.5453L12.5 16.25" stroke="#566573" stroke-width="1.5" stroke-linecap="round" stroke-linejoin="round"/>
<path d="M26 14H14C13.1716 14 12.5 14.6716 12.5 15.5V24.5C12.5 25.3284 13.1716 26 14 26H26C26.8284 26 27.5 25.3284 27.5 24.5V15.5C27.5 14.6716 26.8284 14 26 14Z" stroke="#566573" stroke-width="1.5" stroke-linecap="round" stroke-linejoin="round"/>
</svg>
