<svg width="40" height="40" viewBox="0 0 40 40" fill="none" xmlns="http://www.w3.org/2000/svg">
<mask id="path-1-inside-1_9835_9703" fill="white">
<path d="M0 10C0 4.47715 4.47715 0 10 0H30C35.5228 0 40 4.47715 40 10V30C40 35.5228 35.5228 40 30 40H10C4.47715 40 0 35.5228 0 30V10Z"/>
</mask>
<path d="M0 10C0 4.47715 4.47715 0 10 0H30C35.5228 0 40 4.47715 40 10V30C40 35.5228 35.5228 40 30 40H10C4.47715 40 0 35.5228 0 30V10Z" fill="white" fill-opacity="0.05"/>
<path d="M10 0V1H30V0V-1H10V0ZM40 10H39V30H40H41V10H40ZM30 40V39H10V40V41H30V40ZM0 30H1V10H0H-1V30H0ZM10 40V39C5.02944 39 1 34.9706 1 30H0H-1C-1 36.0751 3.92487 41 10 41V40ZM40 30H39C39 34.9706 34.9706 39 30 39V40V41C36.0751 41 41 36.0751 41 30H40ZM30 0V1C34.9706 1 39 5.02944 39 10H40H41C41 3.92487 36.0751 -1 30 -1V0ZM10 0V-1C3.92487 -1 -1 3.92487 -1 10H0H1C1 5.02944 5.02944 1 10 1V0Z" fill="#D5DAE1" mask="url(#path-1-inside-1_9835_9703)"/>
<path d="M23 17C24.1935 17 25.3381 17.4741 26.182 18.318C27.0259 19.1619 27.5 20.3065 27.5 21.5V26.75H24.5V21.5C24.5 21.1022 24.342 20.7206 24.0607 20.4393C23.7794 20.158 23.3978 20 23 20C22.6022 20 22.2206 20.158 21.9393 20.4393C21.658 20.7206 21.5 21.1022 21.5 21.5V26.75H18.5V21.5C18.5 20.3065 18.9741 19.1619 19.818 18.318C20.6619 17.4741 21.8065 17 23 17Z" stroke="#566573" stroke-width="1.5" stroke-linecap="round" stroke-linejoin="round"/>
<path d="M15.5 17.75H12.5V26.75H15.5V17.75Z" stroke="#566573" stroke-width="1.5" stroke-linecap="round" stroke-linejoin="round"/>
<path d="M14 15.5C14.8284 15.5 15.5 14.8284 15.5 14C15.5 13.1716 14.8284 12.5 14 12.5C13.1716 12.5 12.5 13.1716 12.5 14C12.5 14.8284 13.1716 15.5 14 15.5Z" stroke="#566573" stroke-width="1.5" stroke-linecap="round" stroke-linejoin="round"/>
</svg>
