<svg width="40" height="40" viewBox="0 0 40 40" fill="none" xmlns="http://www.w3.org/2000/svg">
<mask id="path-1-inside-1_9835_9687" fill="white">
<path d="M0 10C0 4.47715 4.47715 0 10 0H30C35.5228 0 40 4.47715 40 10V30C40 35.5228 35.5228 40 30 40H10C4.47715 40 0 35.5228 0 30V10Z"/>
</mask>
<path d="M0 10C0 4.47715 4.47715 0 10 0H30C35.5228 0 40 4.47715 40 10V30C40 35.5228 35.5228 40 30 40H10C4.47715 40 0 35.5228 0 30V10Z" fill="#5C7FA8"/>
<path d="M10 0V1H30V0V-1H10V0ZM40 10H39V30H40H41V10H40ZM30 40V39H10V40V41H30V40ZM0 30H1V10H0H-1V30H0ZM10 40V39C5.02944 39 1 34.9706 1 30H0H-1C-1 36.0751 3.92487 41 10 41V40ZM40 30H39C39 34.9706 34.9706 39 30 39V40V41C36.0751 41 41 36.0751 41 30H40ZM30 0V1C34.9706 1 39 5.02944 39 10H40H41C41 3.92487 36.0751 -1 30 -1V0ZM10 0V-1C3.92487 -1 -1 3.92487 -1 10H0H1C1 5.02944 5.02944 1 10 1V0Z" fill="#5C7FA8" mask="url(#path-1-inside-1_9835_9687)"/>
<path d="M26.0998 25.8859L21.6982 18.9685L26.0414 14.1908C26.1396 14.0801 26.1902 13.9351 26.1823 13.7873C26.1743 13.6395 26.1085 13.5008 25.9989 13.4012C25.8894 13.3017 25.745 13.2493 25.5971 13.2555C25.4492 13.2617 25.3097 13.3259 25.2089 13.4342L21.0717 17.9848L18.2248 13.5109C18.174 13.431 18.1039 13.3652 18.0209 13.3196C17.9379 13.274 17.8448 13.25 17.7501 13.25H14.3751C14.2743 13.25 14.1753 13.277 14.0885 13.3284C14.0017 13.3797 13.9303 13.4535 13.8817 13.5419C13.8332 13.6303 13.8094 13.7301 13.8127 13.8309C13.816 13.9317 13.8463 14.0298 13.9005 14.1148L18.3021 21.0315L13.9589 25.8127C13.9082 25.8672 13.8688 25.9312 13.843 26.001C13.8172 26.0709 13.8055 26.1451 13.8086 26.2195C13.8117 26.2939 13.8295 26.3669 13.8611 26.4343C13.8926 26.5017 13.9372 26.5622 13.9923 26.6123C14.0474 26.6623 14.1119 26.701 14.182 26.7259C14.2521 26.7509 14.3265 26.7617 14.4008 26.7577C14.4752 26.7537 14.5479 26.735 14.615 26.7026C14.682 26.6703 14.742 26.625 14.7914 26.5693L18.9286 22.0187L21.7755 26.4927C21.8267 26.5719 21.897 26.637 21.9799 26.682C22.0629 26.727 22.1558 26.7503 22.2501 26.75H25.6251C25.7259 26.75 25.8248 26.7229 25.9115 26.6716C25.9982 26.6203 26.0695 26.5466 26.118 26.4583C26.1665 26.37 26.1904 26.2703 26.1872 26.1696C26.184 26.0689 26.1538 25.9709 26.0998 25.8859ZM22.5588 25.625L15.3996 14.375H17.4387L24.6007 25.625H22.5588Z" fill="white"/>
</svg>
